# xmcd
# 
# Track frame offsets:
#     150
#     3829
#     18182
#     35403
#     48736
#     62740
#     81220
#     86875
#     99568
#     115149
#     125486
#     141324
#     143595
# 
# Disc length: 1987
# 
# Revision: 1
# Processed by: cddbd v1.5.2PL0 Copyright (c) Steve Scherf et al.
# Submitted via: BonkEnc v1.0.8
# 
DISCID=ab07c10d
DTITLE=Kenny Vance - Vance 32
DYEAR=1975
DGENRE=Folk
TTITLE0=Carnival Montage I
TTITLE1=I'm So Happy
TTITLE2=Rainy Day Friend
TTITLE3=My True Story
TTITLE4=Blue Because Of You
TTITLE5=Parker's Band
TTITLE6=In Each Other's Arms (Detail)
TTITLE7=Honeymoon In Cuba
TTITLE8=Dirty Work
TTITLE9=(What A ) Wonderful World
TTITLE10=Looking For An Echo
TTITLE11=Carnival Montage II
TTITLE12=Looking For An Echo (Reprise)
EXTD=
EXTT0=
EXTT1=
EXTT2=
EXTT3=
EXTT4=
EXTT5=
EXTT6=
EXTT7=
EXTT8=
EXTT9=
EXTT10=
EXTT11=
EXTT12=
PLAYORDER=
